<svg width="151" height="136" fill="none" xmlns="http://www.w3.org/2000/svg"><path d="M85.248 55.39c.01-6.519.006-12.884-2.237-18.963-2.318-6.281-7.348-8.693-13.487-9.142-10.37-.758-20.51.966-30.558 3.35-3.332.79-6.614 1.807-9.914 2.732-2.62.735-4.327-.305-4.89-3.022a6825.198 6825.198 0 0 1-3.229-15.694c-.62-3.025-.012-4.207 2.781-5.379 10.31-4.335 21.036-6.952 32.13-8.047C65 .319 74.081.56 82.98 3.203c12.173 3.616 20.472 11.506 25.052 23.475 3.551 9.284 4.473 18.998 4.492 28.831.047 24.779.012 49.56.009 74.339 0 2.653-.041 2.691-2.661 2.691-4.064 0-8.131-.09-12.192.035-2.198.068-3.642-.896-4.634-2.707-.97-1.776-1.799-3.632-2.746-5.42-1.714-3.237-3.231-3.754-6.418-1.937-3.35 1.914-6.54 4.123-9.905 6.015-7.361 4.139-15.356 6.159-23.696 6.888-5.163.45-10.32.527-15.474-.263-16.943-2.595-29.705-14.965-32.936-32.007C.183 94.228.426 85.461 4.107 77.031c4.33-9.913 11.74-16.718 21.321-21.198 9.899-4.627 20.393-5.921 31.182-5.552 7.348.25 14.64.902 21.76 2.842 2.269.617 4.477 1.47 6.88 2.27l-.002-.003zm-.555 31.436v-4.332c0-5.591-.18-5.86-5.375-8.019-.048-.02-.098-.035-.149-.054-12.227-4.554-24.58-4.51-36.972-.868-3.8 1.118-7.155 3.199-9.61 6.459-4.07 5.404-4.422 11.512-2.975 17.858 1.492 6.544 5.575 10.806 11.78 12.912 7.077 2.406 14.296 2.078 21.379.219 8.786-2.309 15.587-7.833 21.393-14.705.361-.427.488-1.166.5-1.766.055-2.566.023-5.135.023-7.704h.006zM136.866 132.966c-7.804.029-14.102-6.31-14.136-14.232-.035-7.958 6.176-14.393 13.931-14.435 7.912-.042 14.184 6.275 14.206 14.303.022 7.955-6.199 14.332-14.001 14.361v.003z" fill="#1E22AA"/></svg>