<svg width="36" height="35" fill="none" xmlns="http://www.w3.org/2000/svg"><path d="m34.02 10.9.007.008s0-.011-.003-.017l-.001.003-.003.006zM13.383 9.469l.01.005-.004-.013-.006.008z" fill="#18994D"/><path fill-rule="evenodd" clip-rule="evenodd" d="M34.027 10.908s0-.011-.003-.017l-.001.003v.003a.038.038 0 0 1 .004.01z" fill="#18994D"/><path fill-rule="evenodd" clip-rule="evenodd" d="M27.046 24.838c-.46.46-.948.893-1.46 1.29-.535.413-1.176.613-1.843.713-.394.06-.79.1-1.187.035-.436-.069-.884-.09-1.307-.207a12.05 12.05 0 0 1-2.83-1.19c-1.375-.792-2.627-1.745-3.8-2.808-1.037-.943-2.015-1.942-2.894-3.033-.947-1.177-1.797-2.417-2.448-3.785a10.312 10.312 0 0 1-.756-2.2 5.547 5.547 0 0 1-.145-1.515c.059-1.034.348-1.989 1.07-2.772.291-.315.568-.643.856-.959.392-.431.898-.585 1.46-.511.255.034.497.172.746.263l.358.302c.011.01.023.023.03.036.08.123.159.245.237.368.01.034.018.069.027.103l.229.492.005.013.035.075.022.04-.002-.003.036.075.35.796.04.07c.119.261.236.522.355.781.238.53.47 1.063.72 1.587.229.483.194.774-.18 1.158-.253.261-.514.516-.765.778-.189.198-.318.44-.277.714.026.179.11.363.212.513 1.334 1.923 2.966 3.561 4.833 4.97.19.143.389.277.59.405.396.252.813.146 1.11-.133.28-.263.546-.544.826-.808.347-.326.638-.368 1.07-.17 1.3.596 2.597 1.196 3.9 1.788.41.186.766.433.986.836.313.575.288 1.399-.207 1.893h-.002zM13.393 9.474l-.01-.005.006-.008.004.013z" fill="#019BF0"/><path fill-rule="evenodd" clip-rule="evenodd" d="M32.233 15.739a11.816 11.816 0 0 0-.163-1.007l-.004-.022a21.519 21.519 0 0 0-.36-1.505c-.311-1.07-.777-2.076-1.33-3.041a13.37 13.37 0 0 0-1.722-2.355c0 .027-.003.054-.004.08 0-.027.004-.054.004-.08 0-.01-.006-.016-.016-.017l-.023-.025-.004-.005-.029-.03c-.443-.425-.885-.85-1.329-1.274-.368-.285-.726-.585-1.106-.852a14.116 14.116 0 0 0-3.887-1.922 15.757 15.757 0 0 0-1.388-.348c-.37-.081-.745-.141-1.122-.192-.277-.038-.556-.05-.834-.066-.402-.025-.806-.058-1.21-.06-.305-.002-.611.032-.918.06-.451.04-.906.057-1.35.138-.787.146-1.57.322-2.317.62-.637.254-1.257.548-1.885.826-.03.012-.062.022-.09.038-.859.458-1.667.993-2.414 1.616-2.041 1.701-3.495 3.811-4.387 6.307-.145.406-.297.813-.4 1.23-.118.473-.2.957-.269 1.44-.072.49-.134.984-.155 1.478-.021.496-.001.994.03 1.488.034.528.069 1.062.168 1.58.12.628.271 1.255.473 1.86.225.668.497 1.324.796 1.963.435.935 1 1.796 1.616 2.622.088.12.137.231.078.386-.063.163-.091.34-.136.509l-.344 1.317c-.058.22-.113.44-.17.664l-.018.074c.045.005.061.013.076.01.696-.19 1.395-.375 2.089-.572.604-.172.598-.175 1.081.188a14.353 14.353 0 0 0 5.433 2.527c.5.117 1.012.185 1.521.26.34.05.685.088 1.028.096.767.017 1.535.034 2.296-.09.457-.074.92-.115 1.372-.211.468-.1.931-.234 1.39-.377 2.096-.655 3.935-1.758 5.535-3.247 1.306-1.217 2.326-2.658 3.088-4.268.3-.633.514-1.306.767-1.96.02-.055.048-.108.06-.166.131-.601.259-1.203.39-1.805.123-.559.155-1.128.161-1.697.005-.44.01-.88 0-1.319a8.81 8.81 0 0 0-.065-.868l-.003.004zm-6.648 10.389c.513-.397 1.002-.83 1.46-1.29h.003c.495-.494.52-1.318.207-1.893-.22-.403-.576-.65-.986-.836-1.303-.592-2.6-1.192-3.9-1.788-.432-.198-.723-.157-1.07.17-.28.264-.545.545-.826.808-.297.28-.714.385-1.11.133a9.104 9.104 0 0 1-.59-.405c-1.867-1.409-3.499-3.047-4.833-4.97a1.266 1.266 0 0 1-.212-.513c-.04-.275.088-.516.277-.714.25-.262.512-.517.765-.778.374-.384.409-.675.18-1.158-.25-.524-.482-1.057-.72-1.587l-.355-.78-.04-.071-.35-.796c-.013-.024-.025-.05-.036-.075l.002.004c-.008-.015-.014-.028-.022-.04l-.035-.076-.005-.013-.229-.492-.027-.103-.236-.368a.164.164 0 0 0-.031-.036l-.358-.302c-.249-.09-.491-.23-.747-.263-.56-.074-1.067.08-1.46.511-.287.316-.564.644-.855.959-.722.783-1.011 1.738-1.07 2.772a5.547 5.547 0 0 0 .145 1.514c.17.764.42 1.496.756 2.201.65 1.368 1.5 2.608 2.448 3.785.879 1.091 1.857 2.09 2.895 3.033 1.172 1.063 2.424 2.016 3.798 2.808a12.05 12.05 0 0 0 2.831 1.19c.423.116.872.138 1.307.207.398.064.793.025 1.187-.035.667-.1 1.308-.3 1.842-.713zm5.994-4.66z" fill="#D2EDFF"/><path fill-rule="evenodd" clip-rule="evenodd" d="M28.715 30.933a17.66 17.66 0 0 0 4.867-6.06l-.003.006c.352-.716.652-1.454.871-2.224.081-.283.174-.563.261-.845.001-.048-.006-.099.005-.145.06-.243.145-.483.184-.731.1-.616.187-1.233.262-1.85.049-.388.082-.776.094-1.166.012-.36-.005-.721-.027-1.081-.034-.568-.066-1.136-.133-1.7a22.697 22.697 0 0 0-.265-1.617c-.065-.339-.167-.671-.252-1.008-.038-.12-.077-.238-.114-.358l-.021-.082-.02-.047-.008-.032-.034-.099c-.041-.121-.084-.241-.126-.362l-.025-.059-.178-.486-.025-.073v-.006l-.008-.008.003-.006-.093-.235c-.01-.006-.013-.015-.01-.027l.002.002-.02-.039-.226-.482c-1.062-2.272-2.563-4.21-4.467-5.84-1.313-1.126-2.75-2.059-4.345-2.738-.498-.213-1.008-.393-1.512-.588L23.202.9l-.229-.065c-.354-.09-.697-.225-1.06-.286-.357-.06-.712-.133-1.068-.197-.255-.046-.512-.094-.77-.124a15.348 15.348 0 0 0-.85-.07 12.309 12.309 0 0 0-.76-.033c-.578-.004-1.154-.013-1.73.01-.395.014-.79.071-1.184.12-.255.03-.508.081-.76.123-.054.002-.111-.006-.162.008-.82.223-1.646.428-2.456.682-.538.168-1.053.41-1.579.62-.27.136-.541.27-.81.41a16.25 16.25 0 0 0-2.976 2.003 19.283 19.283 0 0 0-2.2 2.191c-.862 1.004-1.6 2.093-2.168 3.286-.37.777-.727 1.569-1 2.384-.261.788-.419 1.61-.599 2.422-.094.422-.151.855-.193 1.285-.043.439-.063.88-.065 1.32-.004.6-.01 1.201.035 1.797.046.58.137 1.157.241 1.73.103.567.223 1.133.381 1.687.146.51.342 1.009.53 1.507a16.048 16.048 0 0 0 1.653 3.177c.091.136.106.26.064.41-.185.676-.365 1.354-.55 2.031-.174.634-.358 1.265-.528 1.9-.16.6-.31 1.204-.465 1.806-.027.11-.062.22-.105.373.255-.064.48-.116.701-.176 1.097-.294 2.192-.59 3.288-.885l.008-.002c.67-.181 1.34-.369 2.014-.537.146-.037.352-.068.46.004a15.3 15.3 0 0 0 2.454 1.335c.774.33 1.568.626 2.374.874a12.3 12.3 0 0 0 2.384.5c.442.045.882.141 1.324.152.759.018 1.519.004 2.276-.029.471-.02.942-.087 1.409-.156a16.57 16.57 0 0 0 2.897-.687 17.26 17.26 0 0 0 5.287-2.867zm3.355-16.201c.07.331.122.669.163 1.007l.003-.004c.035.288.059.579.065.868.01.44.005.88 0 1.319-.006.57-.038 1.138-.16 1.697-.132.602-.26 1.204-.391 1.805-.012.058-.04.111-.06.166-.253.654-.467 1.327-.767 1.96-.762 1.61-1.782 3.051-3.088 4.268-1.6 1.49-3.439 2.592-5.536 3.247-.458.143-.92.278-1.389.377-.452.096-.915.137-1.372.211-.761.124-1.53.107-2.296.09a8.513 8.513 0 0 1-1.028-.096c-.51-.075-1.02-.142-1.521-.26A14.353 14.353 0 0 1 9.26 28.86c-.483-.363-.477-.36-1.081-.188-.694.197-1.393.382-2.09.571-.014.004-.03-.004-.075-.009l.019-.074c.056-.224.111-.444.169-.664.113-.44.23-.878.344-1.317.045-.17.073-.346.136-.509.059-.155.01-.266-.078-.386-.616-.826-1.18-1.687-1.616-2.622a18.779 18.779 0 0 1-.796-1.963 14.438 14.438 0 0 1-.473-1.86c-.099-.518-.134-1.052-.168-1.58-.031-.494-.051-.992-.03-1.488.02-.494.083-.988.155-1.478.07-.483.151-.967.269-1.44.103-.417.255-.824.4-1.23.892-2.496 2.346-4.606 4.387-6.307A14.184 14.184 0 0 1 11.147 4.7c.027-.016.059-.026.089-.038.628-.278 1.248-.572 1.885-.827.746-.297 1.53-.473 2.317-.62.444-.08.899-.097 1.35-.137.307-.028.613-.062.918-.06.404.002.808.035 1.21.06.278.017.557.028.834.066.377.05.752.11 1.122.192.466.101.934.205 1.388.348a14.116 14.116 0 0 1 3.887 1.922c.38.267.738.567 1.106.852.444.423.886.849 1.329 1.274l.029.03.004.005.023.025c.01.001.016.006.016.017a13.37 13.37 0 0 1 1.722 2.355c.553.965 1.019 1.972 1.33 3.04.143.496.252 1.002.36 1.506l.004.022z" fill="#185BAA"/></svg>