<svg width="34" height="35" fill="none" xmlns="http://www.w3.org/2000/svg"><path d="M.29 17.093V15.07l.016-.71c.006-.224.01-.449.02-.673.008-.237.019-.476.033-.714.038-.656.097-1.31.187-1.961a17.83 17.83 0 0 1 .516-2.507c.333-1.163.803-2.267 1.478-3.28.391-.586.828-1.138 1.354-1.612.682-.614 1.455-1.095 2.278-1.5 1.25-.618 2.571-1.032 3.93-1.334A26.45 26.45 0 0 1 13.385.27c.336-.031.672-.061 1.01-.08.379-.024.76-.037 1.14-.055.019 0 .036-.01.054-.015h1.604c.016.005.032.013.047.013l1.702.055c.187.006.373.008.56.022.433.033.866.068 1.298.11 1.04.105 2.067.273 3.084.51 1.332.311 2.622.737 3.846 1.347.8.4 1.555.866 2.218 1.469.844.766 1.472 1.685 1.96 2.703.764 1.587 1.157 3.276 1.383 5.01.03.23.046.463.069.695.017.173.047.345.048.518.004 1.637.003 3.273.003 4.91 0 .047 0 .096-.005.143-.044.507-.077 1.013-.136 1.518a39.408 39.408 0 0 1-.271 1.988 11.935 11.935 0 0 1-1.03 3.235c-1.049 2.154-2.685 3.703-4.91 4.643-.716.302-1.464.5-2.21.705-.804.22-1.613.41-2.437.533-.61.09-1.222.166-1.834.243-.288.036-.579.063-.87.086-.276.021-.553.033-.831.048-.25.014-.499.027-.748.037-.173.007-.347.01-.521.008-.702-.007-1.403-.013-2.106-.024-.24-.004-.48-.021-.72-.035a20.07 20.07 0 0 1-.593-.043c-.057-.004-.093.007-.13.052-.966 1.168-2.021 2.258-3.047 3.371-.242.262-.509.501-.84.654a.374.374 0 0 1-.146.033c-.273.003-.547.005-.82 0a.454.454 0 0 1-.194-.048 1.069 1.069 0 0 1-.476-.513 2.43 2.43 0 0 1-.224-1.072v-3.441c0-.064-.017-.09-.082-.109a11.572 11.572 0 0 1-2.141-.84 9.451 9.451 0 0 1-3.181-2.631c-.84-1.084-1.414-2.3-1.816-3.6-.436-1.404-.632-2.848-.747-4.306-.025-.31-.025-.622-.038-.933 0-.028-.01-.057-.015-.087l-.001-.004zm9.05 13.162h-.02c0 .953-.002 1.907.003 2.86 0 .122.02.248.054.364.043.148.147.194.299.16a.783.783 0 0 0 .41-.244c.365-.393.74-.779 1.092-1.184a900.88 900.88 0 0 0 3.497-4.069.201.201 0 0 1 .188-.08c.053.005.106.008.16.012.223.017.446.034.67.035a63.97 63.97 0 0 0 1.763-.015 32.145 32.145 0 0 0 1.206-.053c.315-.018.63-.038.944-.067.286-.027.571-.058.855-.1l.35-.05c.57-.083 1.139-.165 1.704-.268.29-.052.577-.122.863-.191.188-.046.376-.091.564-.132.7-.15 1.393-.327 2.054-.608 1.346-.572 2.428-1.456 3.233-2.666.652-.98 1.055-2.06 1.308-3.2.21-.939.292-1.896.375-2.851v-.003c.019-.22.037-.441.049-.662l.013-.24c.017-.292.034-.584.037-.877.006-.398.005-.796.004-1.194a165.204 165.204 0 0 1 0-.568c0-.047.002-.094-.001-.141l-.07-1.144v-.003l-.008-.14a9.735 9.735 0 0 0-.03-.42 19.529 19.529 0 0 0-.337-2.19c-.237-1.09-.574-2.143-1.09-3.138-.67-1.298-1.64-2.284-2.988-2.903-.966-.443-1.961-.79-2.992-1.044-1.482-.365-2.992-.557-4.515-.64a23.686 23.686 0 0 0-.756-.033l-.473-.012c-.808-.022-1.616-.043-2.425-.006-.172.008-.343.02-.514.03l-.29.02-.194.01c-.142.008-.285.015-.426.029-.805.075-1.604.178-2.398.333-1.236.241-2.44.581-3.583 1.112-.703.327-1.367.717-1.958 1.217-.576.488-1.024 1.081-1.413 1.722-.647 1.066-1.03 2.227-1.278 3.438a20.463 20.463 0 0 0-.39 3.741 103.502 103.502 0 0 0 0 3.185c.007.495.048.993.104 1.485.058.516.136 1.032.237 1.54.213 1.085.566 2.122 1.118 3.088a7.526 7.526 0 0 0 2.362 2.553c.777.521 1.623.89 2.52 1.15.17.05.138.013.137.176-.007.958-.018 1.917-.026 2.876h.003zM.29 14.36l.016-.001-.016.71v-.709z" fill="#185BAA"/><path fill-rule="evenodd" clip-rule="evenodd" d="M9.227 27.203c2.024.535 3.277.701 5.636.86l.16.012c.223.016.446.033.67.034a63.97 63.97 0 0 0 1.763-.015 32.145 32.145 0 0 0 1.206-.053c.315-.018.63-.038.944-.067.286-.027.571-.058.855-.1l.35-.05c.57-.083 1.139-.165 1.704-.268.29-.052.577-.122.863-.191.188-.046.376-.091.564-.132.7-.15 1.393-.327 2.054-.608 1.346-.572 2.428-1.456 3.233-2.666.652-.98 1.055-2.06 1.308-3.2.21-.939.292-1.896.375-2.851v-.003c.019-.22.037-.441.049-.662l.013-.24c.017-.292.034-.584.037-.877.006-.398.005-.796.004-1.194a165.204 165.204 0 0 1 0-.568c0-.047.002-.094-.001-.141l-.07-1.144v-.003l-.008-.14a9.735 9.735 0 0 0-.03-.42 19.529 19.529 0 0 0-.337-2.19c-.237-1.09-.574-2.143-1.09-3.138-.67-1.298-1.64-2.284-2.988-2.903-.966-.443-1.961-.79-2.992-1.044-1.482-.365-2.992-.557-4.515-.64a23.686 23.686 0 0 0-.756-.033l-.473-.012c-.808-.022-1.616-.043-2.425-.006-.172.008-.343.02-.514.03l-.29.02-.194.01c-.142.008-.285.015-.426.029-.805.075-1.604.178-2.398.333-1.236.241-2.44.581-3.583 1.112-.703.327-1.367.717-1.958 1.217-.576.488-1.024 1.081-1.413 1.722-.647 1.066-1.03 2.227-1.278 3.438a20.463 20.463 0 0 0-.39 3.741 103.502 103.502 0 0 0 0 3.185c.007.495.048.993.104 1.485.058.516.136 1.032.237 1.54.213 1.085.566 2.122 1.118 3.088a7.526 7.526 0 0 0 2.362 2.553c.777.521 1.623.89 2.52 1.15z" fill="#D2EDFF"/><path d="M9.338 30.255h-.017c0 .953-.003 1.907.002 2.86 0 .122.02.248.054.364.043.148.147.194.299.16a.783.783 0 0 0 .41-.244c.365-.393.74-.779 1.092-1.184a900.88 900.88 0 0 0 3.497-4.069.201.201 0 0 1 .188-.08c-2.359-.158-3.612-.324-5.636-.859.17.05.138.013.137.176-.007.958-.018 1.917-.026 2.876zM24.913 15.513c-.009-1.275-.222-2.51-.744-3.682-.566-1.271-1.442-2.294-2.575-3.107a7.868 7.868 0 0 0-3.658-1.418c-.279-.035-.56-.047-.84-.065-.162-.01-.324-.012-.485-.021a.44.44 0 0 1-.42-.447.434.434 0 0 1 .438-.426c1.697 0 3.308.348 4.776 1.214 2.153 1.27 3.541 3.108 4.112 5.53.097.41.17.827.215 1.245.05.46.06.924.08 1.387.009.245-.16.43-.406.46a.445.445 0 0 1-.458-.328c-.027-.11-.025-.227-.035-.34v-.002z" fill="#185BAA"/><path d="M22.633 14.53c-.026-1.087-.306-2.076-.94-2.952-.701-.967-1.649-1.583-2.802-1.888-.377-.1-.768-.15-1.153-.22-.109-.019-.221-.015-.328-.037a.43.43 0 0 1-.34-.485.428.428 0 0 1 .444-.375c1.557.113 2.98.568 4.144 1.644.938.867 1.512 1.934 1.749 3.18.088.466.12.935.113 1.409a.45.45 0 0 1-.441.462.438.438 0 0 1-.444-.412c-.004-.115 0-.23 0-.326h-.002z" fill="#185BAA"/><path d="M21.203 13.931v.23c0 .207-.22.399-.459.38a.436.436 0 0 1-.412-.42 3.56 3.56 0 0 0-.204-1.046c-.26-.685-.78-1.056-1.488-1.194-.183-.036-.371-.052-.558-.07a.442.442 0 0 1-.417-.45c.005-.232.195-.434.43-.424.723.029 1.407.192 1.993.64.53.404.835.95.991 1.581.062.253.096.512.144.77l-.02.003z" fill="#185BAA"/><path d="M14.118 11.61a1.41 1.41 0 0 1-.334.984.9.9 0 0 1-.141.133c-.25.194-.503.386-.754.58-.315.242-.48.735-.355 1.107.615 1.829 1.662 3.352 3.27 4.47.716.497 1.5.865 2.351 1.06a.994.994 0 0 0 1.012-.35c.194-.233.386-.468.56-.714.388-.544 1.101-.715 1.713-.456.286.12.552.288.818.45.773.468 1.472 1.038 2.18 1.594.102.08.203.163.304.244.479.387.616.893.396 1.465-.123.318-.319.595-.524.865-.32.42-.7.783-1.114 1.112a2.636 2.636 0 0 1-1.231.541c-.157.026-.328-.01-.49-.037-.519-.088-1.003-.288-1.478-.502-1.339-.6-2.652-1.252-3.89-2.04-.945-.602-1.862-1.244-2.689-2-.982-.898-1.89-1.867-2.675-2.944a27.507 27.507 0 0 1-2.99-5.304 7.346 7.346 0 0 1-.333-1.016c-.156-.582-.01-1.111.33-1.598.254-.367.576-.674.907-.97a6 6 0 0 1 1.01-.746c.406-.23.835-.305 1.28-.097.172.081.307.21.43.352a25 25 0 0 1 2.23 3.063c.15.24.226.502.21.753l-.003.002z" fill="#019BF0"/></svg>