<svg width="39" height="35" fill="none" xmlns="http://www.w3.org/2000/svg"><path fill-rule="evenodd" clip-rule="evenodd" d="M5.754 4.51A3.884 3.884 0 0 0 1.87 8.396v21.44a3.884 3.884 0 0 0 3.884 3.885h27.5a3.884 3.884 0 0 0 3.885-3.884V14.144H24.242a2.641 2.641 0 0 1-2.641-2.642v-4.35a2.641 2.641 0 0 1 2.64-2.641H5.755z" fill="#D2EDFF"/><path d="M33.254 4.51h-9.011a2.641 2.641 0 0 0-2.641 2.642v4.35a2.641 2.641 0 0 0 2.64 2.642h12.896V8.395a3.884 3.884 0 0 0-3.884-3.884z" fill="#019BF0"/><path d="M37.139 29.836V8.395m0 21.44a3.884 3.884 0 0 1-3.885 3.885h-27.5a3.884 3.884 0 0 1-3.884-3.884V8.395a3.884 3.884 0 0 1 3.884-3.884m31.384 25.325V14.144M33.255 4.51h-27.5m27.5 0a3.884 3.884 0 0 1 3.885 3.884m-3.885-3.884h-9.011m12.896 3.884v5.749M5.753 4.51h18.489m12.896 9.633H24.242a2.641 2.641 0 0 1-2.641-2.642v-4.35a2.641 2.641 0 0 1 2.64-2.641" stroke="#185BAA" stroke-width="2.4"/><rect x="8.249" y="2.12" width="7.958" height="25.221" rx="3.979" fill="#D2EDFF" stroke="#185BAA" stroke-width="2.4"/><path d="M26.314 20.048a1.864 1.864 0 1 1-3.728 0 1.864 1.864 0 0 1 3.729 0zM32.063 20.048a1.865 1.865 0 1 1-3.729 0 1.865 1.865 0 0 1 3.73 0zM32.063 25.952a1.865 1.865 0 1 1-3.729 0 1.865 1.865 0 0 1 3.73 0zM26.314 25.952a1.864 1.864 0 1 1-3.728 0 1.864 1.864 0 0 1 3.729 0z" fill="#019BF0"/></svg>