<svg class="main-logo" xmlns="http://www.w3.org/2000/svg" width="4168" height="868"><path d="M506.5 140.884c-3.85 1.523-20.275 7.868-36.5 14.1-16.225 6.233-30.288 12.007-31.252 12.831-1.662 1.422-1.739 14.621-1.5 257.092L437.5 680.5l24.577.267c29.409.32 27.436 1.079 38.26-14.729 9.785-14.291 14.537-17.223 21.815-13.459 1.679.868 7.896 5.48 13.815 10.25 24.165 19.47 41.505 25.761 74.033 26.86 18.63.629 32.707-.93 47.757-5.291C740.94 660.292 792.925 570.344 779.354 474c-4.154-29.493-16.217-60.077-33.13-84-8.204-11.605-28.876-32.492-39.724-40.14-49.134-34.637-108.74-41.357-168.645-19.013-5.855 2.184-11.586 4.474-12.736 5.089l-2.09 1.119-.264-97.616-.265-97.616-2.361-1.912c-3.093-2.504-5.229-2.351-13.639.973M227.75 317.045c-29.252 1.802-64.528 9.589-93.269 20.59-9.979 3.82-14.467 7.439-14.496 11.692-.008 1.195 2.333 13.631 5.203 27.635 7.079 34.539 7.148 34.607 28.647 28.162 23.294-6.982 54.493-12.515 79.393-14.081 41-2.578 57.74 6.144 64.878 33.803 1.845 7.147 4.888 40.493 3.796 41.586-.262.261-3.609-.664-7.439-2.055-18.069-6.564-42.196-10.271-71.963-11.056-23.397-.617-36.684.302-53.5 3.701-43.637 8.82-78.193 33.56-94.532 67.679-20.453 42.709-8.88 104.558 25.325 135.354 22.394 20.161 49.736 29.924 83.851 29.939 40.794.018 69.848-8.064 102.404-28.487 18.555-11.64 21.65-12.558 26.162-7.757 1.422 1.513 4.614 6.82 7.094 11.795 2.48 4.974 5.857 10.486 7.504 12.25l2.994 3.205h49.16l.572-2.28c.315-1.255.403-55.142.195-119.75-.336-104.591-.565-118.731-2.093-128.97-5.653-37.886-16.756-62.411-36.951-81.627-14.233-13.543-30.029-21.875-50.88-26.838-18.254-4.345-39.478-5.881-62.055-4.49m3084.25.012c-67.211 4.927-126.272 45.234-155.472 106.104-28.216 58.818-23.626 128.657 12.032 183.079 29.886 45.614 76.176 75.279 129.94 83.274 14.324 2.13 40.549 2.162 54.409.066 73.971-11.189 134.084-64.334 153.522-135.726 4.312-15.84 5.701-25.442 6.281-43.429.957-29.645-3.331-53.492-14.297-79.506-31.077-73.727-106.39-119.728-186.415-113.862m-2347 2.448c-57.593 7.874-104.954 42.158-131.467 95.165-27.535 55.05-27.359 124.155.458 179.83 9.387 18.786 17.83 30.411 33.462 46.07 32.963 33.02 73.878 49.345 123.836 49.41 49.533.066 95.173-14.908 129.436-42.465 9.477-7.623 11.728-11.897 9.07-17.224-2.352-4.714-31.683-44.058-34.495-46.27-4.158-3.27-8.007-2.577-16.841 3.035-19.918 12.653-37.472 20.411-55.959 24.731-9.281 2.169-13.344 2.567-26 2.543-12.826-.023-16.378-.394-24.511-2.56-18.933-5.043-34.236-14.098-48.061-28.439-15.822-16.413-25.682-36.699-28.231-58.081l-.507-4.25h245.514l3.398-2.251c5.675-3.761 7.727-9.401 8.691-23.891 5.617-84.421-42.361-152.371-121.717-172.383-17.182-4.333-46.477-5.65-66.076-2.97m385.5-.389c-23.068 3.351-40.964 11.639-62.289 28.846-6.008 4.847-11.858 9.314-13.001 9.926-6.066 3.246-11.36-.561-20.638-14.84-6.699-10.309-11.505-15.692-15.301-17.135-1.321-.502-10.822-.913-21.114-.913-15.317 0-19.115.282-20.934 1.557l-2.223 1.556v174.789c0 168.062.07 174.852 1.829 176.443 1.634 1.479 5.871 1.655 39.809 1.655 31.218 0 38.325-.253 39.921-1.419 1.895-1.385 1.953-3.969 2.456-108.75l.515-107.331 2.251-8c9.11-32.377 30.421-51.758 63.847-58.063 6.777-1.279 12.178-1.549 22.872-1.146 16.987.64 26.221 2.829 39.5 9.364 8.014 3.943 10.916 6.096 18.554 13.76 7.597 7.623 9.805 10.614 13.724 18.585 2.569 5.225 5.678 13.325 6.91 18 2.234 8.481 2.241 8.739 2.776 115.097.444 88.293.772 106.881 1.908 108.25 1.234 1.485 5.301 1.653 40.095 1.653 36.244 0 38.829-.117 40.378-1.829 1.518-1.677 1.655-10.537 1.655-106.949 0-110.159-.197-116.01-4.559-135.222-15.175-66.838-65.021-110.173-135.652-117.933-11.277-1.239-34.607-1.213-43.289.049m319.5.475c-26.587 3.851-49.618 14.383-66.308 30.322-19.537 18.66-28.968 40.404-28.878 66.587.097 28.318 9.785 50.396 31.594 72 16.689 16.532 33.977 27.322 71.592 44.682 52.782 24.36 65.047 34.873 64.978 55.694-.047 14.337-8.108 23.058-25.501 27.588-7.815 2.036-27.398 2.001-39.551-.071-18.76-3.197-43.046-11.896-59.936-21.467-8.774-4.972-13.684-5.502-17.528-1.89-2.766 2.598-25.206 44.364-25.501 47.464-.676 7.083 1.541 9.752 16.414 19.752 30.454 20.477 70.497 30.833 113.999 29.482 19.74-.613 33.189-2.914 48.891-8.365 37.483-13.014 63.306-38.017 73.404-71.072 2.433-7.965 2.689-10.311 2.705-24.797.019-17.484-.981-23.36-6.342-37.262-6.144-15.931-19.59-32.349-37.02-45.203-16.639-12.27-36.173-22.721-72.774-38.935-38.51-17.059-48.359-23.409-54.351-35.04-3.021-5.865-3.669-14.759-1.481-20.344 1.942-4.957 3.826-7.334 8.594-10.84 17.36-12.767 58.73-8.189 100.898 11.166 10.195 4.679 11.406 5.013 14.492 3.994 1.853-.611 4.04-1.882 4.86-2.824.821-.941 6.95-12.088 13.621-24.769 15.779-29.995 15.779-29.985.982-39.476-21.872-14.031-50.799-23.517-82.064-26.912-13.085-1.421-38.139-1.152-49.789.536m343.609-.038c-32.529 4.429-66.19 19.113-91.609 39.961-7.819 6.414-22.14 20.851-28.395 28.628-33.346 41.453-47.003 98.307-36.579 152.269C1872 617.919 1936.18 678.212 2014.662 688.5c90.07 11.807 174.735-41.654 202.159-127.652 6.282-19.698 8.538-34.752 8.52-56.848-.016-19.938-1.348-30.67-6.003-48.391-18.993-72.298-80.437-126.201-155.202-136.154-13.121-1.747-37.324-1.7-50.527.098m407.254-.481c-8.697 1.277-20.674 4.551-28.587 7.814-12.297 5.071-22.502 11.743-40.593 26.539-11.231 9.185-14.691 7.906-26.215-9.694-3.685-5.627-7.885-11.509-9.334-13.07-4.976-5.364-6.425-5.661-27.584-5.661-18.217 0-19.686.136-21.55 2-1.985 1.985-2 3.333-2 175.777 0 155.664.162 174.01 1.557 176l1.556 2.223h38.821c34.885 0 38.96-.168 40.194-1.653 1.136-1.369 1.461-19.861 1.89-107.75l.518-106.097 2.664-9.71c6.354-23.157 19.94-40.698 38.8-50.094 15.165-7.555 22.226-9.032 43.5-9.097 15.325-.048 19.19.261 26.008 2.078 26.186 6.978 44.093 22.736 53.777 47.323 5.739 14.572 5.715 14.046 5.715 125.545 0 101.797.148 106.657 3.313 108.669.653.416 18.367.762 39.366.771 41.311.016 40.504.12 41.882-5.371.31-1.235.386-49.691.169-107.68-.344-92.12-.604-106.744-2.054-115.804-5.899-36.847-18.641-64.33-40.45-87.247-24.364-25.602-58.427-41.459-98.437-45.824-11.134-1.214-34.618-1.207-42.926.013m538.137.433c-36.035 4.927-71.235 21.125-98.763 45.447-29.445 26.016-50.812 63.332-58.216 101.669-12.387 64.138 7.171 127.862 52.602 171.383 37.058 35.501 83.778 53.325 135.377 51.647 28.319-.922 49.052-6.262 74.94-19.305 18.743-9.443 30.758-18.057 45.116-32.346 12.808-12.747 16.605-18.715 15.398-24.207-.794-3.619-13.965-16.933-18.685-18.888-4.753-1.97-7.691-.219-19.199 11.439-13.818 14.001-24.381 22.069-38.814 29.646-21.736 11.412-38.634 15.442-64.756 15.442-19.473 0-28.141-1.289-44.685-6.645-42.698-13.821-77.504-48.739-92.146-92.441-15.219-45.426-8.611-94.631 17.908-133.346 27.74-40.498 74.686-63.675 124.923-61.674 23.727.945 41.378 5.648 63 16.786 12.239 6.305 20.813 12.276 31.387 21.859 6.744 6.112 11.184 7.935 15.775 6.478 2.967-.942 15.553-13.022 17.525-16.82.949-1.829 1.263-4.084.864-6.208-1.3-6.929-16.076-21.314-33.551-32.663-22.871-14.853-50.099-24.466-78.5-27.713-12.024-1.374-35.765-1.145-47.5.46m721-.48c-22.917 3.163-44.931 11.484-60.391 22.826-7.688 5.641-18.633 16.133-22.204 21.286-1.501 2.166-3.047 3.584-3.435 3.151-.388-.433-1.767-8.644-3.064-18.245-3.112-23.033-2.723-22.543-17.906-22.543-11.012 0-11.208.041-13.595 2.816l-2.422 2.815.259 172.521.258 172.521 2.806 2.414c2.674 2.3 3.454 2.413 16.694 2.413 13.239 0 14.02-.113 16.694-2.413l2.806-2.413.555-114.837c.552-114.388.563-114.876 2.797-124.72 10.059-44.321 41.692-74.323 85.048-80.663 12.717-1.859 34.265-.75 46.306 2.383 36.781 9.571 64.326 36.988 74.531 74.186l2.737 9.977.513 116c.282 63.8.905 116.804 1.384 117.787 1.817 3.727 5.919 4.713 19.615 4.713 13.601 0 16.7-.798 18.68-4.81.459-.929 1.075-53.665 1.37-117.19.535-115.371.538-115.509 2.759-123.853 10.778-40.483 37.602-67.142 77.875-77.394 7.597-1.935 11.413-2.247 27.33-2.238 22.025.012 30.208 1.683 46.876 9.572 27.703 13.112 46.453 35.901 54.952 66.794l2.647 9.619.512 116.5c.555 125.943.247 119.418 5.756 121.929 1.295.59 8.327 1.071 15.658 1.071 12.647 0 13.435-.119 15.887-2.391 1.419-1.316 2.858-3.903 3.196-5.75.339-1.848.46-56.009.271-120.359-.338-114.618-.388-117.185-2.443-126.108-5.59-24.271-17.565-45.414-36.002-63.566-24.278-23.903-53.397-38.675-85.587-43.419-14.777-2.177-39.905-1.46-53.922 1.538-35.68 7.634-72.127 31.171-90.816 58.65l-5.505 8.094-5.479-8.094c-18.532-27.38-55.028-50.959-90.802-58.664-11.013-2.371-41.827-3.476-53.199-1.906m-379 37.924c-57.013 10.413-103.007 53.847-117.514 110.975-12.808 50.439 2.919 105.869 40.595 143.079 46.059 45.488 116.781 55.166 172.027 23.54 13.716-7.852 20.461-13.064 32.392-25.033 21.191-21.258 34.269-45.895 41.148-77.51 2.788-12.819 2.544-44.767-.446-58.266-12.902-58.25-55.49-102.093-112.091-115.395-14.975-3.52-40.93-4.162-56.111-1.39M971 388.872c-34.599 7.573-61.152 32.808-69.059 65.628-1.06 4.4-1.93 8.563-1.934 9.25-.006.99 17.656 1.25 84.993 1.25h85v-2.81c0-4.465-3.982-19.118-7.037-25.896-5.606-12.436-16.22-25.727-26.768-33.519-6.586-4.866-19.741-11.199-27.695-13.333-9.42-2.528-27.313-2.8-37.5-.57m-396.5 8.649c-15.572 2.512-35.196 8.892-47 15.281l-5 2.706-.257 71.191c-.297 82.495-1.061 75.933 10.512 90.339 9.641 12.003 19.576 20.024 32.745 26.438 13.685 6.665 20.863 8.529 35.558 9.231 24.983 1.193 46.38-6.998 64.563-24.716 21.019-20.481 32.364-49.99 32.375-84.206.01-32.756-11.383-60.672-33.21-81.372-12.309-11.674-25.444-19.119-41.286-23.404-10.565-2.857-35.767-3.622-49-1.488m1455 .599c-46.103 4.008-84.687 39.223-94.647 86.38-1.706 8.081-1.686 30.324.036 39 10.663 53.724 59.439 90.814 113.621 86.399 17.635-1.437 35.782-7.93 51.342-18.369 8.251-5.536 22.196-19.633 28.105-28.411 6.116-9.086 11.764-21.658 14.787-32.913 2.311-8.606 2.606-11.576 2.606-26.206 0-14.596-.298-17.61-2.584-26.119-4.89-18.2-13.804-33.991-26.653-47.217-23.482-24.169-53.447-35.428-86.613-32.544M209 512.695c-17.293 1.852-33.707 7.213-43.811 14.309-14.351 10.077-20.411 22.602-20.321 41.996.126 27.283 14.112 45.661 40.132 52.733 5.196 1.413 10.211 1.748 25 1.672 16.478-.085 19.545-.374 28.059-2.644 18.284-4.875 35.693-15.476 52.191-31.779l9.75-9.635-.002-24.924-.002-24.923-4.248-2.641c-16.862-10.482-37.044-14.958-66.248-14.693-9.35.085-18.575.323-20.5.529m2491 56.865c-21.782 4.695-39.916 22.755-45.607 45.421-2.248 8.954-1.469 26.101 1.578 34.742 4.412 12.512 14.327 24.677 25.759 31.604 17.783 10.777 41.29 11.532 60.457 1.943 8.216-4.11 19.837-14.906 24.26-22.537 17.632-30.421 6.149-70.496-24.533-85.621-13.758-6.782-27.662-8.624-41.914-5.552" fill="#fff" fill-rule="evenodd"/></svg>